<?xml version="1.0" encoding="UTF-8" standalone="no"?>
<svg
   width="170"
   height="73"
   viewBox="-1 -2 170 73"
   version="1.1"
   xmlns="http://www.w3.org/2000/svg"
   xmlns:svg="http://www.w3.org/2000/svg"
   xmlns:rdf="http://www.w3.org/1999/02/22-rdf-syntax-ns#"
   xmlns:cc="http://creativecommons.org/ns#">
  <g
     stroke="#000000"
     stroke-width="2"
     stroke-linecap="round"
     id="molecule"
     transform="translate(-83.699997,-2)">
    <line
       x1="84.699997"
       y1="36.799999"
       x2="127.1"
       y2="36.799999"
       id="line1" />
    <line
       x1="208.8"
       y1="36.799999"
       x2="251.2"
       y2="36.799999"
       id="line2" />
    <line
       x1="148.2"
       y1="3"
       x2="127.1"
       y2="36.799999"
       id="line12" />
    <line
       x1="151.10001"
       y1="11.9"
       x2="136.39999"
       y2="35.5"
       id="line13" />
    <line
       x1="127.1"
       y1="36.799999"
       x2="148.2"
       y2="70.599998"
       id="line14" />
    <line
       x1="148.2"
       y1="70.599998"
       x2="187.7"
       y2="70.599998"
       id="line15" />
    <line
       x1="154.2"
       y1="63.400002"
       x2="181.7"
       y2="63.400002"
       id="line16" />
    <line
       x1="187.7"
       y1="70.599998"
       x2="208.8"
       y2="36.799999"
       id="line17" />
    <line
       x1="208.8"
       y1="36.799999"
       x2="187.7"
       y2="3"
       id="line18" />
    <line
       x1="199.5"
       y1="35.5"
       x2="184.7"
       y2="11.9"
       id="line19" />
    <line
       x1="187.7"
       y1="3"
       x2="148.2"
       y2="3"
       id="line20" />
  </g>
  <g
     transform="translate(-201.14693,-230.6561)"
     id="brackets">
    <path
       d="m 337.717,296.72598 h 10.17857 V 233.86883 H 337.717 M 234.39387,296.72598 H 224.2153 v -62.85715 h 10.17857"
       style="fill:none;stroke:#000000;stroke-width:2.1px;stroke-linecap:butt;stroke-linejoin:miter;stroke-miterlimit:4;stroke-dasharray:none;stroke-opacity:1"
       id="path2" />
  </g>
</svg>
