<?xml version="1.0" encoding="UTF-8" standalone="no"?>
<svg
   width="145"
   height="139"
   viewBox="-1 -2 145 139"
   version="1.1"
   id="svg62"
   xmlns="http://www.w3.org/2000/svg"
   xmlns:svg="http://www.w3.org/2000/svg"
   xmlns:rdf="http://www.w3.org/1999/02/22-rdf-syntax-ns#"
   xmlns:cc="http://creativecommons.org/ns#">
  <style
     type="text/css"
     id="style1">
text.O { fill:rgb(255,0,0); stroke:rgb(255,0,0) }
text.S { fill:rgb(255,229,22); stroke:rgb(255,229,22) }
</style>
  <g
     stroke="#000000"
     stroke-width="2"
     stroke-linecap="round"
     id="molecule"
     transform="rotate(-30,127.73476,300.68792)">
    <line
       x1="108"
       y1="81.400002"
       x2="147.10001"
       y2="89.800003"
       id="line2" />
    <line
       x1="203.2"
       y1="122.1"
       x2="229.89999"
       y2="151.89999"
       id="line3" />
    <line
       x1="158.10001"
       y1="114.4"
       x2="147.10001"
       y2="89.800003"
       id="line25" />
    <line
       x1="147.10001"
       y1="89.800003"
       x2="176.89999"
       y2="63"
       id="line26" />
    <line
       x1="156.39999"
       y1="91.099998"
       x2="177.2"
       y2="72.400002"
       id="line27" />
    <line
       x1="176.89999"
       y1="63"
       x2="211.5"
       y2="83"
       id="line28" />
    <line
       x1="211.5"
       y1="83"
       x2="203.2"
       y2="122.1"
       id="line29" />
    <line
       x1="203.2"
       y1="87.400002"
       x2="197.39999"
       y2="114.8"
       id="line30" />
    <line
       x1="203.2"
       y1="122.1"
       x2="176.3"
       y2="124.9"
       id="line31" />
    <line
       x1="246.10001"
       y1="50"
       x2="246.10001"
       y2="23"
       id="line47" />
    <line
       x1="246.10001"
       y1="23"
       x2="211.5"
       y2="3"
       id="line48" />
    <line
       x1="211.5"
       y1="3"
       x2="188.10001"
       y2="16.5"
       id="line49" />
    <line
       x1="176.89999"
       y1="36"
       x2="176.89999"
       y2="63"
       id="line50" />
    <line
       x1="211.5"
       y1="83"
       x2="234.89999"
       y2="69.5"
       id="line51" />
  </g>
  <g
     font-family="sans-serif"
     font-size="20px"
     fill="#000000"
     stroke="#000000"
     stroke-width="0"
     id="text"
     transform="translate(-121.22905,5.0346422)">
    <text
       x="188.12776"
       y="129.67432"
       font-size="16px"
       class="S"
       id="text57">S</text>
    <text
       x="220.5303"
       y="36.161362"
       font-size="16px"
       class="O"
       id="text58">O</text>
    <text
       x="151.40604"
       y="36.161362"
       font-size="16px"
       class="O"
       id="text59">O</text>
    <g
       transform="translate(-78.778182,-168.10265)"
       id="brackets">
      <path
         d="m 309.717,296.72598 h 10.17857 V 233.86883 H 309.717 m -75.32313,62.85715 H 224.2153 v -62.85715 h 10.17857"
         style="fill:none;stroke:#000000;stroke-width:2.1px;stroke-linecap:butt;stroke-linejoin:miter;stroke-miterlimit:4;stroke-dasharray:none;stroke-opacity:1"
         id="path2" />
    </g>
  </g>
</svg>
